<svg width="16" height="16" viewBox="0 0 16 16" fill="none" xmlns="http://www.w3.org/2000/svg">
<path d="M15.2312 9.86557L13.9 9.09682C14.0344 8.37182 14.0344 7.62807 13.9 6.90307L15.2312 6.13432C15.3844 6.04682 15.4531 5.86557 15.4031 5.69682C15.0562 4.58432 14.4656 3.57807 13.6937 2.74057C13.575 2.61244 13.3812 2.58119 13.2312 2.66869L11.9 3.43744C11.3406 2.95619 10.6969 2.58432 10 2.34057V0.806191C10 0.631191 9.87813 0.478066 9.70625 0.440566C8.55938 0.184316 7.38438 0.196816 6.29375 0.440566C6.12188 0.478066 6 0.631191 6 0.806191V2.34369C5.30625 2.59057 4.6625 2.96244 4.1 3.44057L2.77188 2.67182C2.61875 2.58432 2.42813 2.61244 2.30938 2.74369C1.5375 3.57807 0.94688 4.58432 0.600005 5.69994C0.54688 5.86869 0.618755 6.04994 0.77188 6.13744L2.10313 6.90619C1.96875 7.63119 1.96875 8.37494 2.10313 9.09994L0.77188 9.86869C0.618755 9.95619 0.550005 10.1374 0.600005 10.3062C0.94688 11.4187 1.5375 12.4249 2.30938 13.2624C2.42813 13.3906 2.62188 13.4218 2.77188 13.3343L4.10313 12.5656C4.6625 13.0468 5.30625 13.4187 6.00313 13.6624V15.1999C6.00313 15.3749 6.125 15.5281 6.29688 15.5656C7.44375 15.8218 8.61875 15.8093 9.70938 15.5656C9.88125 15.5281 10.0031 15.3749 10.0031 15.1999V13.6624C10.6969 13.4156 11.3406 13.0437 11.9031 12.5656L13.2344 13.3343C13.3875 13.4218 13.5781 13.3937 13.6969 13.2624C14.4687 12.4281 15.0594 11.4218 15.4062 10.3062C15.4531 10.1343 15.3844 9.95307 15.2312 9.86557ZM8 10.4999C6.62188 10.4999 5.5 9.37807 5.5 7.99994C5.5 6.62182 6.62188 5.49994 8 5.49994C9.37813 5.49994 10.5 6.62182 10.5 7.99994C10.5 9.37807 9.37813 10.4999 8 10.4999Z" fill="#9FA2B4"/>
</svg>
